<svg width="162" height="16" viewBox="0 0 162 16" fill="none" xmlns="http://www.w3.org/2000/svg">
<path d="M98.0748 14.794C97.6028 14.254 97.1968 13.652 96.8568 12.988C96.5208 12.32 96.2608 11.62 96.0768 10.888C95.8968 10.156 95.8088 9.42 95.8128 8.68C95.8088 7.94 95.8968 7.204 96.0768 6.472C96.2608 5.736 96.5208 5.036 96.8568 4.372C97.1968 3.708 97.6028 3.106 98.0748 2.566L98.7228 3.07C98.2588 3.626 97.8708 4.21 97.5588 4.822C97.2468 5.43 97.0128 6.058 96.8568 6.706C96.7048 7.354 96.6268 8.012 96.6228 8.68C96.6268 9.34 96.7068 9.998 96.8628 10.654C97.0228 11.306 97.2568 11.94 97.5648 12.556C97.8768 13.168 98.2628 13.742 98.7228 14.278L98.0748 14.794ZM102.404 13.174C101.976 13.174 101.582 13.098 101.222 12.946C100.862 12.794 100.552 12.578 100.292 12.298C100.032 12.014 99.8422 11.676 99.7222 11.284L100.562 11.032C100.706 11.46 100.942 11.784 101.27 12.004C101.602 12.224 101.976 12.33 102.392 12.322C102.776 12.314 103.106 12.228 103.382 12.064C103.662 11.9 103.876 11.672 104.024 11.38C104.172 11.088 104.246 10.75 104.246 10.366C104.246 9.778 104.074 9.306 103.73 8.95C103.39 8.59 102.94 8.41 102.38 8.41C102.224 8.41 102.06 8.432 101.888 8.476C101.716 8.516 101.556 8.574 101.408 8.65L100.964 7.948L104.324 4.846L104.468 5.206H100.064V4.36H105.056V5.218L102.128 8.014L102.116 7.666C102.716 7.59 103.244 7.658 103.7 7.87C104.156 8.082 104.512 8.406 104.768 8.842C105.028 9.274 105.158 9.782 105.158 10.366C105.158 10.918 105.038 11.406 104.798 11.83C104.562 12.25 104.236 12.58 103.82 12.82C103.404 13.056 102.932 13.174 102.404 13.174ZM106.475 12.994L106.481 12.19L110.387 8.662C110.723 8.358 110.945 8.07 111.053 7.798C111.165 7.522 111.221 7.234 111.221 6.934C111.221 6.578 111.137 6.256 110.969 5.968C110.801 5.68 110.575 5.452 110.291 5.284C110.007 5.112 109.689 5.026 109.337 5.026C108.969 5.026 108.641 5.114 108.353 5.29C108.065 5.466 107.837 5.698 107.669 5.986C107.505 6.274 107.425 6.588 107.429 6.928H106.529C106.529 6.404 106.653 5.934 106.901 5.518C107.149 5.102 107.485 4.776 107.909 4.54C108.333 4.3 108.813 4.18 109.349 4.18C109.873 4.18 110.343 4.304 110.759 4.552C111.179 4.796 111.509 5.128 111.749 5.548C111.993 5.964 112.115 6.428 112.115 6.94C112.115 7.3 112.071 7.618 111.983 7.894C111.899 8.166 111.765 8.42 111.581 8.656C111.401 8.888 111.171 9.128 110.891 9.376L107.423 12.508L107.285 12.148H112.115V12.994H106.475ZM115.961 13V6.52H116.753V8.08L116.597 7.876C116.669 7.684 116.763 7.508 116.879 7.348C116.995 7.184 117.121 7.05 117.257 6.946C117.425 6.798 117.621 6.686 117.845 6.61C118.069 6.53 118.295 6.484 118.523 6.472C118.751 6.456 118.959 6.472 119.147 6.52V7.348C118.911 7.288 118.653 7.274 118.373 7.306C118.093 7.338 117.835 7.45 117.599 7.642C117.383 7.81 117.221 8.012 117.113 8.248C117.005 8.48 116.933 8.728 116.897 8.992C116.861 9.252 116.843 9.51 116.843 9.766V13H115.961ZM122.91 13.18C122.278 13.18 121.73 13.04 121.266 12.76C120.806 12.48 120.448 12.086 120.192 11.578C119.936 11.07 119.808 10.474 119.808 9.79C119.808 9.082 119.934 8.47 120.186 7.954C120.438 7.438 120.792 7.04 121.248 6.76C121.708 6.48 122.25 6.34 122.874 6.34C123.514 6.34 124.06 6.488 124.512 6.784C124.964 7.076 125.306 7.496 125.538 8.044C125.77 8.592 125.876 9.246 125.856 10.006H124.956V9.694C124.94 8.854 124.758 8.22 124.41 7.792C124.066 7.364 123.562 7.15 122.898 7.15C122.202 7.15 121.668 7.376 121.296 7.828C120.928 8.28 120.744 8.924 120.744 9.76C120.744 10.576 120.928 11.21 121.296 11.662C121.668 12.11 122.194 12.334 122.874 12.334C123.338 12.334 123.742 12.228 124.086 12.016C124.434 11.8 124.708 11.49 124.908 11.086L125.73 11.404C125.474 11.968 125.096 12.406 124.596 12.718C124.1 13.026 123.538 13.18 122.91 13.18ZM120.432 10.006V9.268H125.382V10.006H120.432ZM128.705 13L126.353 6.52H127.247L129.161 11.848L131.063 6.52H131.969L129.617 13H128.705ZM133.167 5.29V4.3H134.049V5.29H133.167ZM133.167 13V6.52H134.049V13H133.167ZM138.59 13.18C137.958 13.18 137.41 13.04 136.946 12.76C136.486 12.48 136.128 12.086 135.872 11.578C135.616 11.07 135.488 10.474 135.488 9.79C135.488 9.082 135.614 8.47 135.866 7.954C136.118 7.438 136.472 7.04 136.928 6.76C137.388 6.48 137.93 6.34 138.554 6.34C139.194 6.34 139.74 6.488 140.192 6.784C140.644 7.076 140.986 7.496 141.218 8.044C141.45 8.592 141.556 9.246 141.536 10.006H140.636V9.694C140.62 8.854 140.438 8.22 140.09 7.792C139.746 7.364 139.242 7.15 138.578 7.15C137.882 7.15 137.348 7.376 136.976 7.828C136.608 8.28 136.424 8.924 136.424 9.76C136.424 10.576 136.608 11.21 136.976 11.662C137.348 12.11 137.874 12.334 138.554 12.334C139.018 12.334 139.422 12.228 139.766 12.016C140.114 11.8 140.388 11.49 140.588 11.086L141.41 11.404C141.154 11.968 140.776 12.406 140.276 12.718C139.78 13.026 139.218 13.18 138.59 13.18ZM136.112 10.006V9.268H141.062V10.006H136.112ZM144.013 13L142.033 6.514L142.915 6.52L144.451 11.554L145.993 6.52H146.797L148.339 11.554L149.887 6.52H150.763L148.783 13H148.015L146.395 7.84L144.781 13H144.013ZM154.028 13.174C153.268 13.174 152.642 13.01 152.15 12.682C151.662 12.354 151.362 11.898 151.25 11.314L152.15 11.164C152.246 11.532 152.464 11.826 152.804 12.046C153.148 12.262 153.572 12.37 154.076 12.37C154.568 12.37 154.956 12.268 155.24 12.064C155.524 11.856 155.666 11.574 155.666 11.218C155.666 11.018 155.62 10.856 155.528 10.732C155.44 10.604 155.258 10.486 154.982 10.378C154.706 10.27 154.294 10.142 153.746 9.994C153.158 9.834 152.698 9.674 152.366 9.514C152.034 9.354 151.798 9.17 151.658 8.962C151.518 8.75 151.448 8.492 151.448 8.188C151.448 7.82 151.552 7.498 151.76 7.222C151.968 6.942 152.256 6.726 152.624 6.574C152.992 6.418 153.42 6.34 153.908 6.34C154.396 6.34 154.832 6.42 155.216 6.58C155.604 6.736 155.916 6.956 156.152 7.24C156.388 7.524 156.528 7.854 156.572 8.23L155.672 8.392C155.612 8.012 155.422 7.712 155.102 7.492C154.786 7.268 154.384 7.152 153.896 7.144C153.436 7.132 153.062 7.22 152.774 7.408C152.486 7.592 152.342 7.838 152.342 8.146C152.342 8.318 152.394 8.466 152.498 8.59C152.602 8.71 152.79 8.824 153.062 8.932C153.338 9.04 153.73 9.158 154.238 9.286C154.834 9.438 155.302 9.598 155.642 9.766C155.982 9.934 156.224 10.132 156.368 10.36C156.512 10.588 156.584 10.87 156.584 11.206C156.584 11.818 156.356 12.3 155.9 12.652C155.448 13 154.824 13.174 154.028 13.174ZM157.928 15.154L157.28 14.638C157.74 14.102 158.124 13.528 158.432 12.916C158.744 12.3 158.978 11.666 159.134 11.014C159.294 10.358 159.376 9.7 159.38 9.04C159.376 8.372 159.296 7.714 159.14 7.066C158.988 6.418 158.756 5.79 158.444 5.182C158.132 4.57 157.744 3.986 157.28 3.43L157.928 2.926C158.4 3.466 158.804 4.068 159.14 4.732C159.48 5.396 159.74 6.096 159.92 6.832C160.104 7.564 160.194 8.3 160.19 9.04C160.194 9.78 160.104 10.516 159.92 11.248C159.74 11.98 159.48 12.678 159.14 13.342C158.804 14.01 158.4 14.614 157.928 15.154Z" fill="black"/>
<path d="M7.5 0L9.18386 5.18237H14.6329L10.2245 8.38525L11.9084 13.5676L7.5 10.3647L3.09161 13.5676L4.77547 8.38525L0.367076 5.18237H5.81614L7.5 0Z" fill="black"/>
<path d="M26.5 0L28.1839 5.18237H33.6329L29.2245 8.38525L30.9084 13.5676L26.5 10.3647L22.0916 13.5676L23.7755 8.38525L19.3671 5.18237H24.8161L26.5 0Z" fill="black"/>
<path d="M45.5 0L47.1839 5.18237H52.6329L48.2245 8.38525L49.9084 13.5676L45.5 10.3647L41.0916 13.5676L42.7755 8.38525L38.3671 5.18237H43.8161L45.5 0Z" fill="black"/>
<path d="M64.5 0L66.1839 5.18237H71.6329L67.2245 8.38525L68.9084 13.5676L64.5 10.3647L60.0916 13.5676L61.7755 8.38525L57.3671 5.18237H62.8161L64.5 0Z" fill="black"/>
<path d="M83.5 0L85.1839 5.18237H90.6329L86.2245 8.38525L87.9084 13.5676L83.5 10.3647L79.0916 13.5676L80.7755 8.38525L76.3671 5.18237H81.8161L83.5 0Z" fill="black"/>
</svg>
